/vscmnt/brussel_pixiu_data/_data_brussel/112/vsc11236/PredSimResults/SUBJ09opt3D/weighted-LRposFixed/expIG/worker_05.mot
version=1
nRows=7
nColumns=50
inDegrees=yes
endheader
                time	         pelvis_tilt	         pelvis_list	     pelvis_rotation	           pelvis_tx	           pelvis_ty	           pelvis_tz	       hip_flexion_r	     hip_adduction_r	      hip_rotation_r	        knee_angle_r	       ankle_angle_r	         mtp_angle_r	       hip_flexion_l	     hip_adduction_l	      hip_rotation_l	        knee_angle_l	       ankle_angle_l	         mtp_angle_l	    lumbar_extension	      lumbar_bending	     lumbar_rotation	 ercspn_r/activation	 intobl_r/activation	 extobl_r/activation	    abd_r/activation	    add_r/activation	hamstrings_r/activation	bifemsh_r/activation	glut_max_r/activation	iliopsoas_r/activation	rect_fem_r/activation	  vasti_r/activation	gastroc_r/activation	 soleus_r/activation	tib_ant_r/activation	 ercspn_l/activation	 intobl_l/activation	 extobl_l/activation	    abd_l/activation	    add_l/activation	hamstrings_l/activation	bifemsh_l/activation	glut_max_l/activation	iliopsoas_l/activation	rect_fem_l/activation	  vasti_l/activation	gastroc_l/activation	 soleus_l/activation	tib_ant_l/activation	
          0.00000000	         -3.49356501	         -1.50946827	          7.58622081	          0.00000000	          0.99579618	         -0.00116799	         22.94265385	          0.06638592	         -4.19605675	          3.07964449	          2.61096235	          0.22806158	        -11.39911385	         -2.94010096	         -3.04627176	        -12.12949359	          5.87073727	         35.71121382	        -12.49107994	         -1.40433492	        -11.12945938	          0.03970556	          0.22668282	          0.05538065	          0.01000001	          0.25294124	          0.05356647	          0.01221950	          0.01000003	          0.09287191	          0.02059790	          0.02552879	          0.01000006	          0.01000002	          0.32377313	          0.01000089	          0.01000003	          0.01000001	          0.05734465	          0.01000011	          0.01264046	          0.29370210	          0.01824442	          0.01146667	          0.01000235	          0.01000014	          0.33004810	          0.27429225	          0.01221932	
          0.01331481	         -3.56519077	         -1.70007677	          7.57779142	          0.01966116	          0.99366448	         -0.00009869	         22.60166264	          0.47846446	         -4.43257801	          2.16353793	          1.86968178	          0.23826938	        -11.95995203	         -3.35317344	         -3.59842024	        -12.94737075	          4.91195918	         37.43931012	        -11.86475709	         -0.84802462	        -11.33265109	          0.03249460	          0.19197106	          0.04532290	          0.01000003	          0.23803589	          0.06160137	          0.01000082	          0.02997380	          0.07600532	          0.01685710	          0.07022148	          0.01330768	          0.01493101	          0.33635082	          0.01000026	          0.01000006	          0.01000009	          0.04693021	          0.01000014	          0.03352817	          0.28418958	          0.01493105	          0.01000030	          0.01000018	          0.01000012	          0.30376190	          0.25206639	          0.01000016	
          0.02662961	         -3.61335796	         -1.93806997	          7.53299660	          0.03973012	          0.99174179	          0.00095535	         22.14162219	          0.89482412	         -4.67241098	          1.17423986	          1.11824344	          0.21905597	        -12.39367626	         -3.82623754	         -4.18627826	        -14.05662599	          3.79932737	         39.17633659	        -11.20989456	         -0.21817248	        -11.47512570	          0.02659325	          0.15710703	          0.03709176	          0.06661578	          0.19480597	          0.07135263	          0.01000764	          0.04348137	          0.06220189	          0.01379567	          0.05746863	          0.01089090	          0.01221938	          0.40443295	          0.01000040	          0.01000002	          0.01000010	          0.03840715	          0.01000010	          0.04086807	          0.26701798	          0.01221941	          0.01931302	          0.01000011	          0.01000004	          0.27370685	          0.22765792	          0.01000001	
          0.03994442	         -3.64310978	         -2.21555666	          7.45062676	          0.05988643	          0.99028694	          0.00206986	         21.55045830	          1.35922642	         -5.00912537	          0.42572229	          0.20045900	          0.18828626	        -12.61073721	         -4.35874086	         -4.80438417	        -15.55808408	          2.47803927	         40.86674499	        -10.56255314	          0.46544744	        -11.55420639	          0.02176369	          0.12857462	          0.03035549	          0.11373096	          0.15942737	          0.07185833	          0.01000142	          0.06044475	          0.05090532	          0.01129024	          0.04703438	          0.01000011	          0.01000023	          0.45156041	          0.01383769	          0.01000002	          0.01000006	          0.03143197	          0.01000010	          0.05970896	          0.21853035	          0.01000024	          0.03003355	          0.01000010	          0.01000003	          0.22399871	          0.18843461	          0.01000001	
          0.05325923	         -3.65789947	         -2.51733588	          7.33596606	          0.07979196	          0.98951238	          0.00324898	         20.91315358	          1.85401242	         -5.40645311	         -0.28813274	         -0.45327956	          0.15031669	        -12.53615108	         -4.94269259	         -5.44602940	        -17.53689394	          0.96091274	         42.31518309	         -9.96092138	          1.18347320	        -11.57335977	          0.01781129	          0.10522401	          0.02484260	          0.17198969	          0.13151552	          0.07270194	          0.01000182	          0.06730864	          0.04166033	          0.01000006	          0.04379508	          0.01000025	          0.01000011	          0.47275979	          0.05487359	          0.01000010	          0.01000007	          0.02572357	          0.01000046	          0.07701986	          0.17884306	          0.01000006	          0.02457947	          0.01000006	          0.01000003	          0.18331799	          0.15421274	          0.01000001	
          0.06657403	         -3.66208913	         -2.83069633	          7.19872919	          0.09914946	          0.98960783	          0.00447430	         20.26880657	          2.36420975	         -5.78221008	         -1.01808698	         -0.73632409	          0.11495725	        -12.11540377	         -5.57279260	         -6.11278461	        -20.03693315	         -0.71388874	         43.22914328	         -9.43378683	          1.91973301	        -11.53987948	          0.01457692	          0.08611414	          0.02033092	          0.19778488	          0.12666377	          0.07409723	          0.01000117	          0.09980854	          0.03409435	          0.01000008	          0.06964772	          0.01000034	          0.01000029	          0.46110343	          0.06871862	          0.01000014	          0.01000007	          0.02105188	          0.06998196	          0.08577333	          0.14636347	          0.01000002	          0.04663099	          0.01000004	          0.01000001	          0.15002536	          0.12620595	          0.01000004	
          0.07988884	         -3.65908099	         -3.11601284	          7.03894717	          0.11776020	          0.99067380	          0.00570703	         19.61441442	          2.84875003	         -6.09649810	         -1.73406422	         -0.67377225	          0.08976486	        -11.31775707	         -6.21724046	         -6.83738613	        -23.10577070	         -2.36227495	         43.06731363	         -9.00322831	          2.63031769	        -11.45445308	          0.01752676	          0.07047484	          0.01663862	          0.19768253	          0.13679583	          0.07786860	          0.01000104	          0.11017220	          0.02790243	          0.01000007	          0.08016225	          0.01000048	          0.01000076	          0.42652386	          0.05623894	          0.01000012	          0.01000008	          0.01722862	          0.11032937	          0.08891782	          0.11978246	          0.01000002	          0.06197366	          0.01000004	          0.01000001	          0.12277904	          0.10328551	          0.01000002	
